<svg xmlns="http://www.w3.org/2000/svg" width="375" viewBox="0 0 375 375" height="375" version="1.0"><defs><clipPath id="a"><path d="M 112.175781 86.847656 L 262.925781 86.847656 L 262.925781 287.847656 L 112.175781 287.847656 Z M 112.175781 86.847656"/></clipPath></defs><path fill="#FFF" d="M-37.5 -37.5H412.5V412.5H-37.5z"/><path fill="#FFF" d="M-37.5 -37.5H412.5V412.5H-37.5z"/><path fill="#FFF8F8" d="M-37.5 -37.5H412.5V412.5H-37.5z"/><path fill="#DC0000" d="M 183.84375 93.828125 C 186.925781 93.828125 189.421875 96.324219 189.421875 99.398438 C 189.421875 102.476562 186.925781 104.964844 183.84375 104.964844 C 180.757812 104.964844 178.257812 102.472656 178.257812 99.398438 C 178.257812 96.324219 180.757812 93.828125 183.84375 93.828125 Z M 183.84375 93.828125" fill-rule="evenodd"/><path fill="#DC0000" d="M 184.171875 129.363281 C 190.902344 129.363281 196.359375 134.808594 196.359375 141.523438 C 196.359375 148.242188 190.902344 153.6875 184.171875 153.6875 C 177.441406 153.6875 171.984375 148.242188 171.984375 141.523438 C 171.984375 134.808594 177.441406 129.363281 184.171875 129.363281 Z M 184.171875 129.363281" fill-rule="evenodd"/><path fill="#4B4B4D" d="M 197.9375 113.015625 C 200.875 113.015625 203.257812 115.394531 203.257812 118.324219 C 203.257812 121.253906 200.875 123.632812 197.9375 123.632812 C 195 123.632812 192.617188 121.257812 192.617188 118.324219 C 192.617188 115.394531 195 113.015625 197.9375 113.015625 Z M 197.9375 113.015625" fill-rule="evenodd"/><path fill="#DC0000" d="M 166.453125 188.546875 C 172.183594 188.546875 176.828125 193.183594 176.828125 198.898438 C 176.828125 204.617188 172.183594 209.253906 166.453125 209.253906 C 160.722656 209.253906 156.078125 204.617188 156.078125 198.898438 C 156.078125 193.183594 160.722656 188.546875 166.453125 188.546875 Z M 166.453125 188.546875" fill-rule="evenodd"/><path fill="#4B4B4D" d="M 192.09375 164.230469 C 196.484375 164.230469 200.042969 167.78125 200.042969 172.160156 C 200.042969 176.539062 196.484375 180.089844 192.09375 180.089844 C 187.703125 180.089844 184.144531 176.539062 184.144531 172.160156 C 184.144531 167.78125 187.703125 164.230469 192.09375 164.230469 Z M 192.09375 164.230469" fill-rule="evenodd"/><path fill="#DC0000" d="M 226.777344 198.742188 C 228.347656 203.136719 229.1875 207.835938 229.1875 212.675781 C 229.1875 235.621094 210.546875 254.222656 187.550781 254.222656 C 167.492188 254.222656 150.746094 240.066406 146.800781 221.222656 C 195.921875 224.996094 169.894531 196.558594 226.777344 198.742188 Z M 176.046875 226.242188 C 178.0625 226.242188 179.699219 227.875 179.699219 229.886719 C 179.699219 231.898438 178.0625 233.53125 176.046875 233.53125 C 174.027344 233.53125 172.394531 231.898438 172.394531 229.886719 C 172.394531 227.875 174.027344 226.242188 176.046875 226.242188 Z M 207.761719 212.007812 C 212.398438 212.007812 216.15625 215.757812 216.15625 220.382812 C 216.15625 225.003906 212.398438 228.757812 207.761719 228.757812 C 203.125 228.757812 199.367188 225.007812 199.367188 220.382812 C 199.367188 215.757812 203.125 212.007812 207.761719 212.007812 Z M 190.691406 232.644531 C 193.414062 232.644531 195.617188 234.84375 195.617188 237.558594 C 195.617188 240.273438 193.414062 242.476562 190.691406 242.476562 C 187.972656 242.476562 185.765625 240.273438 185.765625 237.558594 C 185.765625 234.84375 187.972656 232.644531 190.691406 232.644531 Z M 190.691406 232.644531" fill-rule="evenodd"/><g clip-path="url(#a)"><path fill="#4B4B4D" d="M 205.984375 170.65625 L 205.984375 86.84375 L 233.386719 86.84375 L 233.386719 101.839844 L 221.015625 101.839844 L 221.015625 145.316406 C 225.183594 147.378906 229.132812 149.8125 232.816406 152.582031 L 228.386719 166.941406 C 231.007812 169.269531 233.421875 171.820312 235.609375 174.5625 L 250.25 170.992188 C 252.816406 174.828125 255.039062 178.914062 256.875 183.203125 L 245.847656 193.429688 C 246.9375 196.71875 247.757812 200.132812 248.277344 203.648438 L 262.730469 207.855469 C 262.832031 209.449219 262.890625 211.054688 262.890625 212.675781 C 262.890625 215.742188 262.699219 218.769531 262.34375 221.742188 L 247.675781 225.089844 C 246.960938 228.5625 245.949219 231.929688 244.671875 235.160156 L 255.085938 246.019531 C 253.011719 250.195312 250.5625 254.148438 247.78125 257.835938 L 233.386719 253.421875 C 231.050781 256.035156 228.496094 258.445312 225.75 260.625 L 229.328125 275.238281 C 225.480469 277.796875 221.386719 280.015625 217.089844 281.847656 L 206.84375 270.839844 C 203.546875 271.929688 200.121094 272.746094 196.601562 273.265625 L 192.382812 287.691406 C 190.785156 287.789062 189.175781 287.847656 187.554688 287.847656 C 184.480469 287.847656 181.445312 287.660156 178.46875 287.300781 L 175.109375 272.667969 C 171.628906 271.953125 168.257812 270.941406 165.019531 269.667969 L 154.132812 280.0625 C 149.953125 277.992188 145.988281 275.546875 142.292969 272.773438 L 146.71875 258.414062 C 144.101562 256.082031 141.683594 253.53125 139.496094 250.789062 L 124.855469 254.359375 C 122.289062 250.523438 120.066406 246.441406 118.230469 242.152344 L 129.261719 231.925781 C 128.167969 228.636719 127.351562 225.21875 126.828125 221.707031 L 112.375 217.496094 C 112.273438 215.902344 112.214844 214.296875 112.214844 212.679688 C 112.214844 209.609375 112.402344 206.585938 112.761719 203.613281 L 127.429688 200.261719 C 128.144531 196.789062 129.15625 193.425781 130.433594 190.195312 L 120.019531 179.332031 C 122.09375 175.160156 124.542969 171.207031 127.324219 167.515625 L 141.71875 171.933594 C 144.050781 169.320312 146.609375 166.910156 149.355469 164.726562 L 145.777344 150.121094 C 148.433594 148.351562 151.210938 146.746094 154.089844 145.316406 L 154.089844 101.847656 L 141.71875 101.847656 L 141.71875 86.851562 L 169.121094 86.851562 L 169.121094 170.664062 C 152.914062 177.753906 141.59375 193.894531 141.59375 212.679688 C 141.59375 238.007812 162.171875 258.539062 187.550781 258.539062 C 212.933594 258.539062 233.511719 238.007812 233.511719 212.679688 C 233.511719 193.894531 222.1875 177.75 205.984375 170.664062 Z M 205.984375 170.65625" fill-rule="evenodd"/></g></svg>
