<svg xmlns="http://www.w3.org/2000/svg" width="375" viewBox="0 0 375 375" height="375" version="1.0"><defs><clipPath id="a"><path d="M 139.382812 80.132812 L 235.382812 80.132812 L 235.382812 208.382812 L 139.382812 208.382812 Z M 139.382812 80.132812"/></clipPath></defs><path fill="#FFF" d="M-37.5 -37.5H412.5V412.5H-37.5z"/><path fill="#FFF" d="M-37.5 -37.5H412.5V412.5H-37.5z"/><path fill="#FFF8F8" d="M-37.5 -37.5H412.5V412.5H-37.5z"/><path fill="#DC0000" d="M 185.019531 84.589844 C 186.980469 84.589844 188.574219 86.183594 188.574219 88.144531 C 188.574219 90.105469 186.980469 91.695312 185.019531 91.695312 C 183.054688 91.695312 181.460938 90.105469 181.460938 88.144531 C 181.460938 86.179688 183.054688 84.589844 185.019531 84.589844 Z M 185.019531 84.589844" fill-rule="evenodd"/><path fill="#DC0000" d="M 185.226562 107.265625 C 189.515625 107.265625 192.988281 110.738281 192.988281 115.023438 C 192.988281 119.308594 189.515625 122.78125 185.226562 122.78125 C 180.941406 122.78125 177.464844 119.308594 177.464844 115.023438 C 177.464844 110.738281 180.941406 107.265625 185.226562 107.265625 Z M 185.226562 107.265625" fill-rule="evenodd"/><path fill="#4B4B4D" d="M 193.996094 96.832031 C 195.867188 96.832031 197.382812 98.351562 197.382812 100.21875 C 197.382812 102.089844 195.863281 103.605469 193.996094 103.605469 C 192.125 103.605469 190.605469 102.089844 190.605469 100.21875 C 190.605469 98.351562 192.125 96.832031 193.996094 96.832031 Z M 193.996094 96.832031" fill-rule="evenodd"/><path fill="#DC0000" d="M 173.945312 145.027344 C 177.59375 145.027344 180.550781 147.984375 180.550781 151.632812 C 180.550781 155.28125 177.59375 158.238281 173.945312 158.238281 C 170.292969 158.238281 167.335938 155.28125 167.335938 151.632812 C 167.335938 147.984375 170.292969 145.027344 173.945312 145.027344 Z M 173.945312 145.027344" fill-rule="evenodd"/><path fill="#4B4B4D" d="M 190.273438 129.511719 C 193.070312 129.511719 195.335938 131.777344 195.335938 134.570312 C 195.335938 137.363281 193.070312 139.628906 190.273438 139.628906 C 187.476562 139.628906 185.210938 137.363281 185.210938 134.570312 C 185.210938 131.777344 187.476562 129.511719 190.273438 129.511719 Z M 190.273438 129.511719" fill-rule="evenodd"/><path fill="#DC0000" d="M 212.363281 151.53125 C 213.359375 154.335938 213.898438 157.335938 213.898438 160.421875 C 213.898438 175.0625 202.027344 186.929688 187.382812 186.929688 C 174.605469 186.929688 163.941406 177.898438 161.429688 165.875 C 192.710938 168.28125 176.136719 150.136719 212.363281 151.53125 Z M 180.054688 169.078125 C 181.335938 169.078125 182.378906 170.117188 182.378906 171.402344 C 182.378906 172.6875 181.335938 173.726562 180.054688 173.726562 C 178.769531 173.726562 177.726562 172.6875 177.726562 171.402344 C 177.726562 170.117188 178.769531 169.078125 180.054688 169.078125 Z M 200.25 159.996094 C 203.203125 159.996094 205.597656 162.386719 205.597656 165.339844 C 205.597656 168.289062 203.203125 170.683594 200.25 170.683594 C 197.300781 170.683594 194.90625 168.289062 194.90625 165.339844 C 194.90625 162.386719 197.300781 159.996094 200.25 159.996094 Z M 189.378906 173.164062 C 191.113281 173.164062 192.519531 174.566406 192.519531 176.300781 C 192.519531 178.03125 191.113281 179.4375 189.378906 179.4375 C 187.648438 179.4375 186.242188 178.03125 186.242188 176.300781 C 186.242188 174.566406 187.648438 173.164062 189.378906 173.164062 Z M 189.378906 173.164062" fill-rule="evenodd"/><g clip-path="url(#a)"><path fill="#4B4B4D" d="M 199.121094 133.609375 L 199.121094 80.132812 L 216.570312 80.132812 L 216.570312 89.703125 L 208.691406 89.703125 L 208.691406 117.441406 C 211.34375 118.757812 213.859375 120.3125 216.207031 122.078125 L 213.386719 131.238281 C 215.054688 132.726562 216.59375 134.351562 217.984375 136.101562 L 227.308594 133.824219 C 228.945312 136.273438 230.359375 138.878906 231.527344 141.617188 L 224.507812 148.140625 C 225.199219 150.242188 225.722656 152.417969 226.050781 154.660156 L 235.257812 157.347656 C 235.320312 158.363281 235.359375 159.386719 235.359375 160.421875 C 235.359375 162.378906 235.238281 164.308594 235.011719 166.207031 L 225.671875 168.34375 C 225.214844 170.558594 224.570312 172.707031 223.757812 174.769531 L 230.386719 181.699219 C 229.070312 184.359375 227.507812 186.882812 225.738281 189.238281 L 216.570312 186.417969 C 215.082031 188.085938 213.457031 189.625 211.707031 191.015625 L 213.984375 200.339844 C 211.535156 201.972656 208.929688 203.386719 206.191406 204.554688 L 199.667969 197.535156 C 197.566406 198.226562 195.386719 198.75 193.144531 199.082031 L 190.457031 208.285156 C 189.441406 208.347656 188.414062 208.386719 187.382812 208.386719 C 185.425781 208.386719 183.492188 208.265625 181.59375 208.039062 L 179.457031 198.699219 C 177.242188 198.242188 175.09375 197.601562 173.03125 196.785156 L 166.097656 203.417969 C 163.4375 202.097656 160.914062 200.539062 158.558594 198.765625 L 161.378906 189.605469 C 159.710938 188.117188 158.167969 186.488281 156.777344 184.742188 L 147.453125 187.019531 C 145.816406 184.570312 144.402344 181.964844 143.234375 179.230469 L 150.257812 172.703125 C 149.5625 170.605469 149.042969 168.425781 148.710938 166.183594 L 139.503906 163.5 C 139.441406 162.480469 139.402344 161.457031 139.402344 160.421875 C 139.402344 158.464844 139.523438 156.535156 139.75 154.640625 L 149.09375 152.5 C 149.550781 150.285156 150.191406 148.140625 151.007812 146.078125 L 144.375 139.148438 C 145.695312 136.484375 147.253906 133.960938 149.027344 131.605469 L 158.191406 134.425781 C 159.679688 132.757812 161.308594 131.21875 163.058594 129.828125 L 160.777344 120.507812 C 162.46875 119.378906 164.238281 118.351562 166.070312 117.445312 L 166.070312 89.707031 L 158.191406 89.707031 L 158.191406 80.136719 L 175.640625 80.136719 L 175.640625 133.617188 C 165.320312 138.140625 158.113281 148.4375 158.113281 160.425781 C 158.113281 176.585938 171.21875 189.683594 187.382812 189.683594 C 203.542969 189.683594 216.648438 176.585938 216.648438 160.425781 C 216.648438 148.4375 209.4375 138.136719 199.121094 133.613281 Z M 199.121094 133.609375" fill-rule="evenodd"/></g><g fill="#DC0000"><g><g><path d="M 23.28125 0 C 22.789062 0 22.484375 -0.226562 22.359375 -0.6875 L 21.3125 -4.421875 C 21.28125 -4.597656 21.160156 -4.6875 20.953125 -4.6875 L 10.65625 -4.6875 C 10.476562 -4.6875 10.359375 -4.597656 10.296875 -4.421875 L 9.25 -0.6875 C 9.125 -0.226562 8.816406 0 8.328125 0 L 1.90625 0 C 1.601562 0 1.390625 -0.0820312 1.265625 -0.25 C 1.148438 -0.414062 1.140625 -0.632812 1.234375 -0.90625 L 10.796875 -31.203125 C 10.941406 -31.648438 11.257812 -31.875 11.75 -31.875 L 19.8125 -31.875 C 20.332031 -31.875 20.648438 -31.648438 20.765625 -31.203125 L 30.375 -0.90625 C 30.40625 -0.84375 30.421875 -0.738281 30.421875 -0.59375 C 30.421875 -0.195312 30.179688 0 29.703125 0 Z M 12.15625 -10.796875 C 12.15625 -10.609375 12.25 -10.515625 12.4375 -10.515625 L 19.171875 -10.515625 C 19.296875 -10.515625 19.378906 -10.550781 19.421875 -10.625 C 19.472656 -10.707031 19.484375 -10.796875 19.453125 -10.890625 L 15.984375 -23 C 15.953125 -23.15625 15.898438 -23.234375 15.828125 -23.234375 C 15.753906 -23.234375 15.6875 -23.15625 15.625 -23 L 12.15625 -10.890625 Z M 12.15625 -10.796875" transform="translate(81.146 253.708)"/></g></g></g><g fill="#DC0000"><g><g><path d="M 28.96875 -23.90625 C 31.332031 -23.90625 33.179688 -23.175781 34.515625 -21.71875 C 35.859375 -20.269531 36.53125 -18.222656 36.53125 -15.578125 L 36.53125 -0.8125 C 36.53125 -0.570312 36.453125 -0.375 36.296875 -0.21875 C 36.148438 -0.0703125 35.953125 0 35.703125 0 L 29.828125 0 C 29.585938 0 29.390625 -0.0703125 29.234375 -0.21875 C 29.085938 -0.375 29.015625 -0.570312 29.015625 -0.8125 L 29.015625 -13.9375 C 29.015625 -14.96875 28.75 -15.804688 28.21875 -16.453125 C 27.6875 -17.109375 26.976562 -17.4375 26.09375 -17.4375 C 25.21875 -17.4375 24.5 -17.117188 23.9375 -16.484375 C 23.375 -15.847656 23.09375 -15 23.09375 -13.9375 L 23.09375 -0.8125 C 23.09375 -0.570312 23.015625 -0.375 22.859375 -0.21875 C 22.710938 -0.0703125 22.515625 0 22.265625 0 L 16.34375 0 C 16.101562 0 15.90625 -0.0703125 15.75 -0.21875 C 15.601562 -0.375 15.53125 -0.570312 15.53125 -0.8125 L 15.53125 -13.9375 C 15.53125 -14.96875 15.25 -15.804688 14.6875 -16.453125 C 14.125 -17.109375 13.40625 -17.4375 12.53125 -17.4375 C 11.707031 -17.4375 11.019531 -17.175781 10.46875 -16.65625 C 9.925781 -16.144531 9.59375 -15.46875 9.46875 -14.625 L 9.46875 -0.8125 C 9.46875 -0.570312 9.390625 -0.375 9.234375 -0.21875 C 9.085938 -0.0703125 8.894531 0 8.65625 0 L 2.734375 0 C 2.492188 0 2.296875 -0.0703125 2.140625 -0.21875 C 1.984375 -0.375 1.90625 -0.570312 1.90625 -0.8125 L 1.90625 -22.734375 C 1.90625 -22.972656 1.984375 -23.164062 2.140625 -23.3125 C 2.296875 -23.46875 2.492188 -23.546875 2.734375 -23.546875 L 8.65625 -23.546875 C 8.894531 -23.546875 9.085938 -23.46875 9.234375 -23.3125 C 9.390625 -23.164062 9.46875 -22.972656 9.46875 -22.734375 L 9.46875 -21.140625 C 9.46875 -20.984375 9.503906 -20.894531 9.578125 -20.875 C 9.660156 -20.863281 9.75 -20.921875 9.84375 -21.046875 C 11.050781 -22.953125 12.960938 -23.90625 15.578125 -23.90625 C 17.066406 -23.90625 18.378906 -23.578125 19.515625 -22.921875 C 20.648438 -22.273438 21.539062 -21.332031 22.1875 -20.09375 C 22.238281 -19.96875 22.300781 -19.910156 22.375 -19.921875 C 22.457031 -19.941406 22.53125 -20.007812 22.59375 -20.125 C 23.863281 -22.644531 25.988281 -23.90625 28.96875 -23.90625 Z M 28.96875 -23.90625" transform="translate(112.748 253.708)"/></g></g></g><g fill="#DC0000"><g><g><path d="M 16.171875 -23.59375 C 16.410156 -23.59375 16.601562 -23.515625 16.75 -23.359375 C 16.90625 -23.210938 16.984375 -23.015625 16.984375 -22.765625 L 16.984375 -18.21875 C 16.984375 -17.976562 16.90625 -17.78125 16.75 -17.625 C 16.601562 -17.476562 16.410156 -17.40625 16.171875 -17.40625 L 12.25 -17.40625 C 12.039062 -17.40625 11.9375 -17.296875 11.9375 -17.078125 L 11.9375 -0.8125 C 11.9375 -0.570312 11.859375 -0.375 11.703125 -0.21875 C 11.554688 -0.0703125 11.359375 0 11.109375 0 L 5.1875 0 C 4.945312 0 4.75 -0.0703125 4.59375 -0.21875 C 4.445312 -0.375 4.375 -0.570312 4.375 -0.8125 L 4.375 -17.078125 C 4.375 -17.296875 4.265625 -17.40625 4.046875 -17.40625 L 1.875 -17.40625 C 1.625 -17.40625 1.421875 -17.476562 1.265625 -17.625 C 1.117188 -17.78125 1.046875 -17.976562 1.046875 -18.21875 L 1.046875 -22.765625 C 1.046875 -23.015625 1.117188 -23.210938 1.265625 -23.359375 C 1.421875 -23.515625 1.625 -23.59375 1.875 -23.59375 L 4.046875 -23.59375 C 4.265625 -23.59375 4.375 -23.695312 4.375 -23.90625 L 4.375 -25.046875 C 4.375 -26.835938 4.691406 -28.242188 5.328125 -29.265625 C 5.960938 -30.285156 6.976562 -31 8.375 -31.40625 C 9.769531 -31.8125 11.671875 -31.96875 14.078125 -31.875 L 15.671875 -31.875 C 15.910156 -31.875 16.101562 -31.796875 16.25 -31.640625 C 16.40625 -31.492188 16.484375 -31.300781 16.484375 -31.0625 L 16.484375 -27.46875 C 16.484375 -27.21875 16.40625 -27.015625 16.25 -26.859375 C 16.101562 -26.710938 15.910156 -26.640625 15.671875 -26.640625 L 14.171875 -26.640625 C 13.347656 -26.578125 12.769531 -26.378906 12.4375 -26.046875 C 12.101562 -25.710938 11.9375 -25.15625 11.9375 -24.375 L 11.9375 -23.90625 C 11.9375 -23.695312 12.039062 -23.59375 12.25 -23.59375 Z M 16.171875 -23.59375" transform="translate(150.998 253.708)"/></g></g></g><g fill="#DC0000"><g><g><path d="M 12.703125 0.359375 C 9.972656 0.359375 7.660156 -0.367188 5.765625 -1.828125 C 3.867188 -3.285156 2.582031 -5.257812 1.90625 -7.75 C 1.539062 -8.988281 1.359375 -10.351562 1.359375 -11.84375 C 1.359375 -13.363281 1.554688 -14.835938 1.953125 -16.265625 C 2.648438 -18.660156 3.945312 -20.53125 5.84375 -21.875 C 7.75 -23.226562 10.050781 -23.90625 12.75 -23.90625 C 15.425781 -23.90625 17.6875 -23.226562 19.53125 -21.875 C 21.382812 -20.53125 22.675781 -18.675781 23.40625 -16.3125 C 23.832031 -14.9375 24.046875 -13.476562 24.046875 -11.9375 C 24.046875 -10.539062 23.878906 -9.203125 23.546875 -7.921875 C 22.910156 -5.367188 21.632812 -3.347656 19.71875 -1.859375 C 17.8125 -0.378906 15.472656 0.359375 12.703125 0.359375 Z M 12.703125 -6.109375 C 13.585938 -6.109375 14.328125 -6.382812 14.921875 -6.9375 C 15.515625 -7.5 15.929688 -8.269531 16.171875 -9.25 C 16.347656 -10.039062 16.4375 -10.90625 16.4375 -11.84375 C 16.4375 -12.75 16.332031 -13.628906 16.125 -14.484375 C 15.882812 -15.421875 15.472656 -16.144531 14.890625 -16.65625 C 14.316406 -17.175781 13.585938 -17.4375 12.703125 -17.4375 C 11.796875 -17.4375 11.0625 -17.175781 10.5 -16.65625 C 9.9375 -16.144531 9.535156 -15.421875 9.296875 -14.484375 C 9.078125 -13.816406 8.96875 -12.9375 8.96875 -11.84375 C 8.96875 -10.90625 9.0625 -10.039062 9.25 -9.25 C 9.519531 -8.269531 9.941406 -7.5 10.515625 -6.9375 C 11.097656 -6.382812 11.828125 -6.109375 12.703125 -6.109375 Z M 12.703125 -6.109375" transform="translate(169.121 253.708)"/></g></g></g><g fill="#DC0000"><g><g><path d="M 3.046875 0 C 2.804688 0 2.609375 -0.0703125 2.453125 -0.21875 C 2.304688 -0.375 2.234375 -0.570312 2.234375 -0.8125 L 2.234375 -31.0625 C 2.234375 -31.300781 2.304688 -31.492188 2.453125 -31.640625 C 2.609375 -31.796875 2.804688 -31.875 3.046875 -31.875 L 8.96875 -31.875 C 9.21875 -31.875 9.414062 -31.796875 9.5625 -31.640625 C 9.71875 -31.492188 9.796875 -31.300781 9.796875 -31.0625 L 9.796875 -6.78125 C 9.796875 -6.570312 9.898438 -6.46875 10.109375 -6.46875 L 24.28125 -6.46875 C 24.519531 -6.46875 24.710938 -6.390625 24.859375 -6.234375 C 25.015625 -6.085938 25.09375 -5.890625 25.09375 -5.640625 L 25.09375 -0.8125 C 25.09375 -0.570312 25.015625 -0.375 24.859375 -0.21875 C 24.710938 -0.0703125 24.519531 0 24.28125 0 Z M 3.046875 0" transform="translate(194.53 253.708)"/></g></g></g><g fill="#DC0000"><g><g><path d="M 11.796875 -23.90625 C 13.796875 -23.90625 15.613281 -23.5625 17.25 -22.875 C 18.894531 -22.195312 20.1875 -21.257812 21.125 -20.0625 C 22.070312 -18.863281 22.546875 -17.535156 22.546875 -16.078125 L 22.546875 -0.8125 C 22.546875 -0.570312 22.46875 -0.375 22.3125 -0.21875 C 22.164062 -0.0703125 21.96875 0 21.71875 0 L 15.8125 0 C 15.5625 0 15.359375 -0.0703125 15.203125 -0.21875 C 15.054688 -0.375 14.984375 -0.570312 14.984375 -0.8125 L 14.984375 -1.734375 C 14.984375 -1.878906 14.941406 -1.96875 14.859375 -2 C 14.785156 -2.03125 14.707031 -1.988281 14.625 -1.875 C 13.40625 -0.382812 11.445312 0.359375 8.75 0.359375 C 6.34375 0.359375 4.425781 -0.207031 3 -1.34375 C 1.570312 -2.476562 0.859375 -4.15625 0.859375 -6.375 C 0.859375 -8.71875 1.671875 -10.523438 3.296875 -11.796875 C 4.921875 -13.066406 7.269531 -13.703125 10.34375 -13.703125 L 14.671875 -13.703125 C 14.878906 -13.703125 14.984375 -13.8125 14.984375 -14.03125 L 14.984375 -14.796875 C 14.984375 -15.617188 14.71875 -16.265625 14.1875 -16.734375 C 13.65625 -17.203125 12.90625 -17.4375 11.9375 -17.4375 C 11.238281 -17.4375 10.632812 -17.320312 10.125 -17.09375 C 9.625 -16.875 9.269531 -16.566406 9.0625 -16.171875 C 8.914062 -15.953125 8.769531 -15.789062 8.625 -15.6875 C 8.488281 -15.582031 8.316406 -15.546875 8.109375 -15.578125 L 2 -16.34375 C 1.457031 -16.40625 1.21875 -16.617188 1.28125 -16.984375 C 1.425781 -18.296875 1.96875 -19.472656 2.90625 -20.515625 C 3.851562 -21.566406 5.09375 -22.394531 6.625 -23 C 8.15625 -23.601562 9.878906 -23.90625 11.796875 -23.90625 Z M 11.015625 -5.0625 C 12.171875 -5.0625 13.117188 -5.351562 13.859375 -5.9375 C 14.609375 -6.53125 14.984375 -7.316406 14.984375 -8.296875 L 14.984375 -9.296875 C 14.984375 -9.503906 14.878906 -9.609375 14.671875 -9.609375 L 12.03125 -9.609375 C 10.875 -9.609375 9.984375 -9.410156 9.359375 -9.015625 C 8.734375 -8.617188 8.421875 -8.023438 8.421875 -7.234375 C 8.421875 -6.566406 8.648438 -6.035156 9.109375 -5.640625 C 9.566406 -5.253906 10.203125 -5.0625 11.015625 -5.0625 Z M 11.015625 -5.0625" transform="translate(220.622 253.708)"/></g></g></g><g fill="#DC0000"><g><g><path d="M 23.78125 -17.625 C 24.414062 -15.957031 24.734375 -14.046875 24.734375 -11.890625 C 24.734375 -9.878906 24.488281 -8.132812 24 -6.65625 C 23.394531 -4.582031 22.253906 -2.894531 20.578125 -1.59375 C 18.910156 -0.289062 17.09375 0.359375 15.125 0.359375 C 12.8125 0.359375 11.078125 -0.441406 9.921875 -2.046875 C 9.835938 -2.171875 9.753906 -2.21875 9.671875 -2.1875 C 9.597656 -2.15625 9.5625 -2.0625 9.5625 -1.90625 L 9.5625 -0.8125 C 9.5625 -0.570312 9.484375 -0.375 9.328125 -0.21875 C 9.179688 -0.0703125 8.988281 0 8.75 0 L 2.828125 0 C 2.578125 0 2.375 -0.0703125 2.21875 -0.21875 C 2.070312 -0.375 2 -0.570312 2 -0.8125 L 2 -31.0625 C 2 -31.300781 2.070312 -31.492188 2.21875 -31.640625 C 2.375 -31.796875 2.578125 -31.875 2.828125 -31.875 L 8.75 -31.875 C 8.988281 -31.875 9.179688 -31.796875 9.328125 -31.640625 C 9.484375 -31.492188 9.5625 -31.300781 9.5625 -31.0625 L 9.5625 -22 C 9.5625 -21.84375 9.597656 -21.75 9.671875 -21.71875 C 9.753906 -21.695312 9.835938 -21.742188 9.921875 -21.859375 C 11.078125 -23.253906 12.8125 -23.953125 15.125 -23.953125 C 17.0625 -23.953125 18.8125 -23.367188 20.375 -22.203125 C 21.945312 -21.035156 23.082031 -19.507812 23.78125 -17.625 Z M 15.84375 -7.96875 C 16.363281 -8.9375 16.625 -10.195312 16.625 -11.75 C 16.625 -13.382812 16.351562 -14.707031 15.8125 -15.71875 C 15.164062 -16.78125 14.253906 -17.3125 13.078125 -17.3125 C 11.953125 -17.3125 11.070312 -16.796875 10.4375 -15.765625 C 9.882812 -14.753906 9.609375 -13.414062 9.609375 -11.75 C 9.609375 -10.226562 9.867188 -8.984375 10.390625 -8.015625 C 11.023438 -6.859375 11.921875 -6.28125 13.078125 -6.28125 C 14.285156 -6.28125 15.207031 -6.84375 15.84375 -7.96875 Z M 15.84375 -7.96875" transform="translate(244.984 253.708)"/></g></g></g><g fill="#DC0000"><g><g><path d="M 11.9375 0.359375 C 9.78125 0.359375 7.90625 0.0664062 6.3125 -0.515625 C 4.71875 -1.109375 3.488281 -1.941406 2.625 -3.015625 C 1.757812 -4.097656 1.328125 -5.335938 1.328125 -6.734375 L 1.328125 -6.96875 C 1.328125 -7.207031 1.398438 -7.398438 1.546875 -7.546875 C 1.703125 -7.703125 1.898438 -7.78125 2.140625 -7.78125 L 7.75 -7.78125 C 8.289062 -7.78125 8.5625 -7.691406 8.5625 -7.515625 L 8.5625 -7.234375 C 8.5625 -6.660156 8.875 -6.179688 9.5 -5.796875 C 10.125 -5.421875 10.921875 -5.234375 11.890625 -5.234375 C 12.734375 -5.234375 13.414062 -5.378906 13.9375 -5.671875 C 14.457031 -5.960938 14.71875 -6.347656 14.71875 -6.828125 C 14.71875 -7.316406 14.441406 -7.675781 13.890625 -7.90625 C 13.347656 -8.132812 12.484375 -8.351562 11.296875 -8.5625 C 9.378906 -8.925781 7.832031 -9.367188 6.65625 -9.890625 C 5.132812 -10.523438 3.910156 -11.328125 2.984375 -12.296875 C 2.054688 -13.265625 1.59375 -14.570312 1.59375 -16.21875 C 1.59375 -18.582031 2.507812 -20.453125 4.34375 -21.828125 C 6.1875 -23.210938 8.609375 -23.90625 11.609375 -23.90625 C 13.648438 -23.90625 15.4375 -23.578125 16.96875 -22.921875 C 18.5 -22.273438 19.6875 -21.359375 20.53125 -20.171875 C 21.382812 -18.992188 21.8125 -17.628906 21.8125 -16.078125 C 21.8125 -15.921875 21.734375 -15.789062 21.578125 -15.6875 C 21.429688 -15.582031 21.238281 -15.53125 21 -15.53125 L 15.578125 -15.53125 C 15.023438 -15.53125 14.75 -15.625 14.75 -15.8125 L 14.75 -16.078125 C 14.75 -16.648438 14.476562 -17.117188 13.9375 -17.484375 C 13.394531 -17.847656 12.648438 -18.03125 11.703125 -18.03125 C 10.859375 -18.03125 10.171875 -17.882812 9.640625 -17.59375 C 9.109375 -17.3125 8.84375 -16.910156 8.84375 -16.390625 C 8.84375 -15.878906 9.128906 -15.507812 9.703125 -15.28125 C 10.273438 -15.050781 11.242188 -14.800781 12.609375 -14.53125 C 14.460938 -14.164062 15.707031 -13.875 16.34375 -13.65625 C 18.195312 -13.050781 19.644531 -12.234375 20.6875 -11.203125 C 21.738281 -10.171875 22.265625 -8.789062 22.265625 -7.0625 C 22.265625 -4.6875 21.332031 -2.851562 19.46875 -1.5625 C 17.601562 -0.28125 15.09375 0.359375 11.9375 0.359375 Z M 11.9375 0.359375" transform="translate(270.575 253.708)"/></g></g></g><g fill="#4B4B4D"><g><g><path d="M 8.1875 0.21875 C 6.851562 0.21875 5.679688 -0.0390625 4.671875 -0.5625 C 3.660156 -1.09375 2.878906 -1.828125 2.328125 -2.765625 C 1.773438 -3.710938 1.5 -4.8125 1.5 -6.0625 L 1.5 -12.65625 C 1.5 -13.894531 1.773438 -14.984375 2.328125 -15.921875 C 2.878906 -16.867188 3.660156 -17.597656 4.671875 -18.109375 C 5.679688 -18.628906 6.851562 -18.890625 8.1875 -18.890625 C 9.507812 -18.890625 10.675781 -18.640625 11.6875 -18.140625 C 12.695312 -17.648438 13.476562 -16.945312 14.03125 -16.03125 C 14.582031 -15.125 14.859375 -14.078125 14.859375 -12.890625 C 14.859375 -12.710938 14.726562 -12.601562 14.46875 -12.5625 L 12.203125 -12.4375 L 12.09375 -12.4375 C 11.875 -12.4375 11.765625 -12.476562 11.765625 -12.5625 L 11.765625 -12.734375 C 11.765625 -13.773438 11.441406 -14.613281 10.796875 -15.25 C 10.148438 -15.894531 9.28125 -16.21875 8.1875 -16.21875 C 7.101562 -16.21875 6.234375 -15.894531 5.578125 -15.25 C 4.921875 -14.613281 4.59375 -13.773438 4.59375 -12.734375 L 4.59375 -5.921875 C 4.59375 -4.890625 4.921875 -4.050781 5.578125 -3.40625 C 6.234375 -2.769531 7.101562 -2.453125 8.1875 -2.453125 C 9.28125 -2.453125 10.148438 -2.765625 10.796875 -3.390625 C 11.441406 -4.023438 11.765625 -4.867188 11.765625 -5.921875 C 11.765625 -6.015625 11.804688 -6.09375 11.890625 -6.15625 C 11.972656 -6.21875 12.078125 -6.238281 12.203125 -6.21875 L 14.4375 -6.109375 C 14.71875 -6.078125 14.859375 -6.035156 14.859375 -5.984375 L 14.859375 -5.84375 C 14.859375 -4.632812 14.582031 -3.570312 14.03125 -2.65625 C 13.476562 -1.738281 12.695312 -1.03125 11.6875 -0.53125 C 10.675781 -0.03125 9.507812 0.21875 8.1875 0.21875 Z M 8.1875 0.21875" transform="translate(127.212 289.033)"/></g></g></g><g fill="#4B4B4D"><g><g><path d="M 6.859375 -13.84375 C 7.984375 -13.84375 8.972656 -13.644531 9.828125 -13.25 C 10.691406 -12.863281 11.351562 -12.328125 11.8125 -11.640625 C 12.28125 -10.960938 12.515625 -10.1875 12.515625 -9.3125 L 12.515625 -0.421875 C 12.515625 -0.140625 12.375 0 12.09375 0 L 9.84375 0 C 9.5625 0 9.421875 -0.140625 9.421875 -0.421875 L 9.421875 -1.09375 C 9.421875 -1.164062 9.398438 -1.207031 9.359375 -1.21875 C 9.328125 -1.226562 9.285156 -1.210938 9.234375 -1.171875 C 8.273438 -0.242188 6.992188 0.21875 5.390625 0.21875 C 4.078125 0.21875 2.992188 -0.117188 2.140625 -0.796875 C 1.296875 -1.472656 0.875 -2.476562 0.875 -3.8125 C 0.875 -5.195312 1.359375 -6.273438 2.328125 -7.046875 C 3.304688 -7.828125 4.675781 -8.21875 6.4375 -8.21875 L 9.265625 -8.21875 C 9.367188 -8.21875 9.421875 -8.269531 9.421875 -8.375 L 9.421875 -9 C 9.421875 -9.6875 9.210938 -10.222656 8.796875 -10.609375 C 8.378906 -10.992188 7.757812 -11.1875 6.9375 -11.1875 C 6.3125 -11.1875 5.796875 -11.070312 5.390625 -10.84375 C 4.984375 -10.625 4.707031 -10.316406 4.5625 -9.921875 C 4.488281 -9.671875 4.328125 -9.554688 4.078125 -9.578125 L 1.6875 -9.875 C 1.539062 -9.894531 1.429688 -9.9375 1.359375 -10 C 1.285156 -10.0625 1.257812 -10.132812 1.28125 -10.21875 C 1.4375 -11.289062 2.023438 -12.160156 3.046875 -12.828125 C 4.078125 -13.503906 5.347656 -13.84375 6.859375 -13.84375 Z M 6.25 -2.234375 C 7.113281 -2.234375 7.859375 -2.460938 8.484375 -2.921875 C 9.109375 -3.390625 9.421875 -3.984375 9.421875 -4.703125 L 9.421875 -5.921875 C 9.421875 -6.023438 9.367188 -6.078125 9.265625 -6.078125 L 7.046875 -6.078125 C 6.097656 -6.078125 5.347656 -5.898438 4.796875 -5.546875 C 4.242188 -5.191406 3.96875 -4.6875 3.96875 -4.03125 C 3.96875 -3.457031 4.179688 -3.015625 4.609375 -2.703125 C 5.035156 -2.390625 5.582031 -2.234375 6.25 -2.234375 Z M 6.25 -2.234375" transform="translate(143.44 289.033)"/></g></g></g><g fill="#4B4B4D"><g><g><path d="M 2.109375 0 C 1.828125 0 1.6875 -0.140625 1.6875 -0.421875 L 1.6875 -18.25 C 1.6875 -18.539062 1.828125 -18.6875 2.109375 -18.6875 L 4.34375 -18.6875 C 4.632812 -18.6875 4.78125 -18.539062 4.78125 -18.25 L 4.78125 -0.421875 C 4.78125 -0.140625 4.632812 0 4.34375 0 Z M 2.109375 0" transform="translate(157.373 289.033)"/></g></g></g><g fill="#4B4B4D"><g><g><path d="M 7.34375 0.21875 C 5.96875 0.21875 4.78125 -0.128906 3.78125 -0.828125 C 2.789062 -1.535156 2.097656 -2.488281 1.703125 -3.6875 C 1.421875 -4.488281 1.28125 -5.554688 1.28125 -6.890625 C 1.28125 -8.171875 1.421875 -9.21875 1.703125 -10.03125 C 2.078125 -11.207031 2.765625 -12.132812 3.765625 -12.8125 C 4.773438 -13.5 5.96875 -13.84375 7.34375 -13.84375 C 8.726562 -13.84375 9.9375 -13.492188 10.96875 -12.796875 C 12 -12.109375 12.6875 -11.238281 13.03125 -10.1875 C 13.082031 -10.03125 13.132812 -9.785156 13.1875 -9.453125 L 13.1875 -9.34375 C 13.1875 -9.144531 13.070312 -9.019531 12.84375 -8.96875 L 10.625 -8.625 L 10.515625 -8.625 C 10.316406 -8.625 10.191406 -8.726562 10.140625 -8.9375 L 10.0625 -9.28125 C 9.9375 -9.820312 9.625 -10.273438 9.125 -10.640625 C 8.625 -11.003906 8.03125 -11.1875 7.34375 -11.1875 C 6.664062 -11.1875 6.085938 -11.007812 5.609375 -10.65625 C 5.140625 -10.3125 4.828125 -9.835938 4.671875 -9.234375 C 4.492188 -8.660156 4.40625 -7.867188 4.40625 -6.859375 C 4.40625 -5.878906 4.484375 -5.085938 4.640625 -4.484375 C 4.816406 -3.859375 5.132812 -3.363281 5.59375 -3 C 6.0625 -2.632812 6.644531 -2.453125 7.34375 -2.453125 C 8.019531 -2.453125 8.601562 -2.625 9.09375 -2.96875 C 9.582031 -3.320312 9.894531 -3.78125 10.03125 -4.34375 L 10.0625 -4.484375 C 10.082031 -4.566406 10.140625 -4.65625 10.234375 -4.75 C 10.328125 -4.84375 10.4375 -4.878906 10.5625 -4.859375 L 12.78125 -4.515625 C 13.007812 -4.460938 13.125 -4.335938 13.125 -4.140625 C 13.125 -4.023438 13.09375 -3.8125 13.03125 -3.5 C 12.6875 -2.351562 12 -1.445312 10.96875 -0.78125 C 9.9375 -0.113281 8.726562 0.21875 7.34375 0.21875 Z M 7.34375 0.21875" transform="translate(163.86 289.033)"/></g></g></g><g fill="#4B4B4D"><g><g><path d="M 9.71875 -13.203125 C 9.71875 -13.492188 9.859375 -13.640625 10.140625 -13.640625 L 12.359375 -13.640625 C 12.640625 -13.640625 12.78125 -13.492188 12.78125 -13.203125 L 12.78125 -0.421875 C 12.78125 -0.140625 12.640625 0 12.359375 0 L 10.140625 0 C 9.859375 0 9.71875 -0.140625 9.71875 -0.421875 L 9.71875 -1.125 C 9.71875 -1.195312 9.691406 -1.238281 9.640625 -1.25 C 9.597656 -1.269531 9.5625 -1.242188 9.53125 -1.171875 C 8.8125 -0.265625 7.722656 0.1875 6.265625 0.1875 C 4.921875 0.1875 3.789062 -0.203125 2.875 -0.984375 C 1.957031 -1.765625 1.5 -2.878906 1.5 -4.328125 L 1.5 -13.203125 C 1.5 -13.492188 1.640625 -13.640625 1.921875 -13.640625 L 4.15625 -13.640625 C 4.445312 -13.640625 4.59375 -13.492188 4.59375 -13.203125 L 4.59375 -5.203125 C 4.59375 -4.367188 4.804688 -3.703125 5.234375 -3.203125 C 5.671875 -2.703125 6.285156 -2.453125 7.078125 -2.453125 C 7.867188 -2.453125 8.503906 -2.703125 8.984375 -3.203125 C 9.472656 -3.703125 9.71875 -4.367188 9.71875 -5.203125 Z M 9.71875 -13.203125" transform="translate(178.033 289.033)"/></g></g></g><g fill="#4B4B4D"><g><g><path d="M 2.109375 0 C 1.828125 0 1.6875 -0.140625 1.6875 -0.421875 L 1.6875 -18.25 C 1.6875 -18.539062 1.828125 -18.6875 2.109375 -18.6875 L 4.34375 -18.6875 C 4.632812 -18.6875 4.78125 -18.539062 4.78125 -18.25 L 4.78125 -0.421875 C 4.78125 -0.140625 4.632812 0 4.34375 0 Z M 2.109375 0" transform="translate(192.473 289.033)"/></g></g></g><g fill="#4B4B4D"><g><g><path d="M 6.859375 -13.84375 C 7.984375 -13.84375 8.972656 -13.644531 9.828125 -13.25 C 10.691406 -12.863281 11.351562 -12.328125 11.8125 -11.640625 C 12.28125 -10.960938 12.515625 -10.1875 12.515625 -9.3125 L 12.515625 -0.421875 C 12.515625 -0.140625 12.375 0 12.09375 0 L 9.84375 0 C 9.5625 0 9.421875 -0.140625 9.421875 -0.421875 L 9.421875 -1.09375 C 9.421875 -1.164062 9.398438 -1.207031 9.359375 -1.21875 C 9.328125 -1.226562 9.285156 -1.210938 9.234375 -1.171875 C 8.273438 -0.242188 6.992188 0.21875 5.390625 0.21875 C 4.078125 0.21875 2.992188 -0.117188 2.140625 -0.796875 C 1.296875 -1.472656 0.875 -2.476562 0.875 -3.8125 C 0.875 -5.195312 1.359375 -6.273438 2.328125 -7.046875 C 3.304688 -7.828125 4.675781 -8.21875 6.4375 -8.21875 L 9.265625 -8.21875 C 9.367188 -8.21875 9.421875 -8.269531 9.421875 -8.375 L 9.421875 -9 C 9.421875 -9.6875 9.210938 -10.222656 8.796875 -10.609375 C 8.378906 -10.992188 7.757812 -11.1875 6.9375 -11.1875 C 6.3125 -11.1875 5.796875 -11.070312 5.390625 -10.84375 C 4.984375 -10.625 4.707031 -10.316406 4.5625 -9.921875 C 4.488281 -9.671875 4.328125 -9.554688 4.078125 -9.578125 L 1.6875 -9.875 C 1.539062 -9.894531 1.429688 -9.9375 1.359375 -10 C 1.285156 -10.0625 1.257812 -10.132812 1.28125 -10.21875 C 1.4375 -11.289062 2.023438 -12.160156 3.046875 -12.828125 C 4.078125 -13.503906 5.347656 -13.84375 6.859375 -13.84375 Z M 6.25 -2.234375 C 7.113281 -2.234375 7.859375 -2.460938 8.484375 -2.921875 C 9.109375 -3.390625 9.421875 -3.984375 9.421875 -4.703125 L 9.421875 -5.921875 C 9.421875 -6.023438 9.367188 -6.078125 9.265625 -6.078125 L 7.046875 -6.078125 C 6.097656 -6.078125 5.347656 -5.898438 4.796875 -5.546875 C 4.242188 -5.191406 3.96875 -4.6875 3.96875 -4.03125 C 3.96875 -3.457031 4.179688 -3.015625 4.609375 -2.703125 C 5.035156 -2.390625 5.582031 -2.234375 6.25 -2.234375 Z M 6.25 -2.234375" transform="translate(198.959 289.033)"/></g></g></g><g fill="#4B4B4D"><g><g><path d="M 8.890625 -11.5625 C 8.890625 -11.269531 8.742188 -11.125 8.453125 -11.125 L 5.875 -11.125 C 5.769531 -11.125 5.71875 -11.070312 5.71875 -10.96875 L 5.71875 -4.671875 C 5.71875 -3.972656 5.863281 -3.472656 6.15625 -3.171875 C 6.445312 -2.867188 6.910156 -2.71875 7.546875 -2.71875 L 8.25 -2.71875 C 8.53125 -2.71875 8.671875 -2.578125 8.671875 -2.296875 L 8.671875 -0.5 C 8.671875 -0.21875 8.53125 -0.0664062 8.25 -0.046875 L 6.96875 -0.03125 C 5.5625 -0.03125 4.507812 -0.273438 3.8125 -0.765625 C 3.125 -1.253906 2.769531 -2.164062 2.75 -3.5 L 2.75 -10.96875 C 2.75 -11.070312 2.695312 -11.125 2.59375 -11.125 L 1.203125 -11.125 C 0.921875 -11.125 0.78125 -11.269531 0.78125 -11.5625 L 0.78125 -13.203125 C 0.78125 -13.492188 0.921875 -13.640625 1.203125 -13.640625 L 2.59375 -13.640625 C 2.695312 -13.640625 2.75 -13.691406 2.75 -13.796875 L 2.75 -16.78125 C 2.75 -17.070312 2.890625 -17.21875 3.171875 -17.21875 L 5.28125 -17.21875 C 5.570312 -17.21875 5.71875 -17.070312 5.71875 -16.78125 L 5.71875 -13.796875 C 5.71875 -13.691406 5.769531 -13.640625 5.875 -13.640625 L 8.453125 -13.640625 C 8.742188 -13.640625 8.890625 -13.492188 8.890625 -13.203125 Z M 8.890625 -11.5625" transform="translate(212.892 289.033)"/></g></g></g><g fill="#4B4B4D"><g><g><path d="M 7.46875 0.21875 C 6.0625 0.21875 4.851562 -0.132812 3.84375 -0.84375 C 2.832031 -1.5625 2.128906 -2.550781 1.734375 -3.8125 C 1.429688 -4.6875 1.28125 -5.703125 1.28125 -6.859375 C 1.28125 -7.992188 1.421875 -9.007812 1.703125 -9.90625 C 2.117188 -11.144531 2.832031 -12.109375 3.84375 -12.796875 C 4.851562 -13.492188 6.070312 -13.84375 7.5 -13.84375 C 8.851562 -13.84375 10.019531 -13.492188 11 -12.796875 C 11.988281 -12.109375 12.691406 -11.148438 13.109375 -9.921875 C 13.421875 -9.066406 13.578125 -8.054688 13.578125 -6.890625 C 13.578125 -5.765625 13.425781 -4.75 13.125 -3.84375 C 12.71875 -2.582031 12.015625 -1.585938 11.015625 -0.859375 C 10.023438 -0.140625 8.84375 0.21875 7.46875 0.21875 Z M 7.46875 -2.453125 C 8.125 -2.453125 8.6875 -2.640625 9.15625 -3.015625 C 9.632812 -3.390625 9.972656 -3.914062 10.171875 -4.59375 C 10.367188 -5.15625 10.46875 -5.898438 10.46875 -6.828125 C 10.46875 -7.703125 10.375 -8.453125 10.1875 -9.078125 C 10 -9.753906 9.660156 -10.273438 9.171875 -10.640625 C 8.679688 -11.003906 8.097656 -11.1875 7.421875 -11.1875 C 6.742188 -11.1875 6.164062 -11.003906 5.6875 -10.640625 C 5.207031 -10.273438 4.867188 -9.753906 4.671875 -9.078125 C 4.492188 -8.453125 4.40625 -7.703125 4.40625 -6.828125 C 4.40625 -5.960938 4.492188 -5.21875 4.671875 -4.59375 C 4.867188 -3.914062 5.210938 -3.390625 5.703125 -3.015625 C 6.191406 -2.640625 6.78125 -2.453125 7.46875 -2.453125 Z M 7.46875 -2.453125" transform="translate(222.875 289.033)"/></g></g></g><g fill="#4B4B4D"><g><g><path d="M 8 -13.796875 C 8.519531 -13.796875 8.992188 -13.695312 9.421875 -13.5 C 9.628906 -13.394531 9.707031 -13.21875 9.65625 -12.96875 L 9.234375 -10.75 C 9.210938 -10.613281 9.160156 -10.523438 9.078125 -10.484375 C 9.003906 -10.453125 8.890625 -10.453125 8.734375 -10.484375 C 8.515625 -10.554688 8.226562 -10.59375 7.875 -10.59375 C 7.65625 -10.59375 7.484375 -10.582031 7.359375 -10.5625 C 6.617188 -10.53125 6 -10.269531 5.5 -9.78125 C 5 -9.289062 4.75 -8.65625 4.75 -7.875 L 4.75 -0.421875 C 4.75 -0.140625 4.609375 0 4.328125 0 L 2.078125 0 C 1.796875 0 1.65625 -0.140625 1.65625 -0.421875 L 1.65625 -13.203125 C 1.65625 -13.492188 1.796875 -13.640625 2.078125 -13.640625 L 4.328125 -13.640625 C 4.609375 -13.640625 4.75 -13.492188 4.75 -13.203125 L 4.75 -12.171875 C 4.75 -12.097656 4.765625 -12.050781 4.796875 -12.03125 C 4.835938 -12.019531 4.875 -12.046875 4.90625 -12.109375 C 5.65625 -13.234375 6.6875 -13.796875 8 -13.796875 Z M 8 -13.796875" transform="translate(237.742 289.033)"/></g></g></g></svg>