<svg xmlns="http://www.w3.org/2000/svg" xmlns:xlink="http://www.w3.org/1999/xlink" width="500" zoomAndPan="magnify" viewBox="0 0 375 374.999991" height="500" preserveAspectRatio="xMidYMid meet" version="1.0"><defs><clipPath id="id1"><path d="M 114 2.703125 L 258 2.703125 L 258 372.453125 L 114 372.453125 Z M 114 2.703125 " clip-rule="nonzero"/></clipPath><clipPath id="id2"><path d="M 313 227 L 356.824219 227 L 356.824219 271 L 313 271 Z M 313 227 " clip-rule="nonzero"/></clipPath></defs><g clip-path="url(#id1)"><path fill="rgb(85.099792%, 85.099792%, 85.099792%)" d="M 185.976562 372.539062 C 145.757812 372.539062 114.234375 291.328125 114.234375 187.652344 C 114.234375 83.972656 145.742188 2.761719 185.976562 2.761719 C 226.195312 2.761719 257.71875 83.972656 257.71875 187.652344 C 257.71875 291.328125 226.195312 372.539062 185.976562 372.539062 Z M 185.976562 11.632812 C 151.894531 11.632812 123.09375 92.25 123.09375 187.652344 C 123.09375 283.050781 151.894531 363.667969 185.976562 363.667969 C 220.0625 363.667969 248.863281 283.050781 248.863281 187.652344 C 248.863281 92.25 220.0625 11.632812 185.976562 11.632812 Z M 185.976562 11.632812 " fill-opacity="1" fill-rule="nonzero"/></g><path fill="rgb(85.099792%, 85.099792%, 85.099792%)" d="M 73.609375 307.113281 C 54.535156 307.113281 40.132812 301.792969 32.664062 290.648438 C 21.550781 274.050781 27.714844 247.746094 50.0625 216.566406 C 71.539062 186.59375 105.625 155.125 146.015625 127.992188 C 231.988281 70.230469 316.882812 51.203125 339.289062 84.652344 C 350.402344 101.25 344.238281 127.558594 321.890625 158.734375 C 300.414062 188.707031 266.332031 220.175781 225.9375 247.308594 C 168.625 285.820312 111.773438 307.113281 73.609375 307.113281 Z M 298.878906 76.929688 C 262.988281 76.929688 206.050781 98.324219 150.9375 135.355469 C 111.398438 161.921875 78.125 192.59375 57.242188 221.742188 C 37.5 249.28125 31.21875 272.601562 40.003906 285.71875 C 45.765625 294.328125 57.414062 298.386719 73.058594 298.386719 C 108.953125 298.386719 165.890625 276.992188 221 239.960938 C 260.542969 213.394531 293.816406 182.722656 314.699219 153.574219 C 334.441406 126.035156 340.722656 102.714844 331.9375 89.597656 C 326.175781 80.988281 314.523438 76.929688 298.878906 76.929688 Z M 298.878906 76.929688 " fill-opacity="1" fill-rule="nonzero"/><path fill="rgb(85.099792%, 85.099792%, 85.099792%)" d="M 298.34375 307.113281 C 260.179688 307.113281 203.34375 285.820312 146.015625 247.308594 C 105.625 220.160156 71.539062 188.707031 50.0625 158.734375 C 27.730469 127.558594 21.550781 101.25 32.664062 84.652344 C 55.070312 51.203125 139.96875 70.230469 225.9375 127.992188 C 266.332031 155.125 300.414062 186.59375 321.890625 216.566406 C 344.222656 247.746094 350.402344 274.050781 339.289062 290.648438 C 331.820312 301.792969 317.40625 307.113281 298.34375 307.113281 Z M 73.058594 76.929688 C 57.414062 76.929688 45.777344 80.988281 40.003906 89.597656 C 31.21875 102.714844 37.5 126.019531 57.242188 153.574219 C 78.125 182.722656 111.398438 213.394531 150.9375 239.960938 C 230.0625 293.113281 312.949219 314.085938 331.9375 285.71875 C 340.722656 272.601562 334.441406 249.28125 314.699219 221.742188 C 293.816406 192.59375 260.542969 161.921875 221 135.355469 C 165.902344 98.324219 108.953125 76.929688 73.058594 76.929688 Z M 73.058594 76.929688 " fill-opacity="1" fill-rule="nonzero"/><path fill="rgb(100%, 74.899292%, 0%)" d="M 219.453125 187.652344 C 219.453125 188.75 219.398438 189.84375 219.292969 190.9375 C 219.183594 192.03125 219.023438 193.113281 218.808594 194.191406 C 218.597656 195.269531 218.328125 196.332031 218.011719 197.382812 C 217.691406 198.433594 217.324219 199.464844 216.90625 200.480469 C 216.484375 201.496094 216.015625 202.484375 215.5 203.453125 C 214.984375 204.421875 214.421875 205.363281 213.8125 206.277344 C 213.203125 207.191406 212.550781 208.070312 211.855469 208.917969 C 211.160156 209.769531 210.421875 210.582031 209.648438 211.355469 C 208.871094 212.132812 208.0625 212.871094 207.214844 213.566406 C 206.367188 214.261719 205.488281 214.917969 204.574219 215.527344 C 203.664062 216.136719 202.722656 216.699219 201.757812 217.21875 C 200.789062 217.734375 199.800781 218.203125 198.789062 218.625 C 197.773438 219.042969 196.742188 219.414062 195.695312 219.734375 C 194.644531 220.050781 193.582031 220.316406 192.507812 220.53125 C 191.433594 220.746094 190.347656 220.90625 189.257812 221.015625 C 188.167969 221.121094 187.074219 221.175781 185.976562 221.175781 C 184.878906 221.175781 183.785156 221.121094 182.695312 221.015625 C 181.605469 220.90625 180.523438 220.746094 179.445312 220.53125 C 178.371094 220.316406 177.308594 220.050781 176.257812 219.734375 C 175.210938 219.414062 174.179688 219.042969 173.167969 218.625 C 172.152344 218.203125 171.164062 217.734375 170.195312 217.21875 C 169.230469 216.699219 168.289062 216.136719 167.378906 215.527344 C 166.46875 214.917969 165.585938 214.261719 164.742188 213.566406 C 163.894531 212.871094 163.082031 212.132812 162.304688 211.355469 C 161.53125 210.582031 160.796875 209.769531 160.101562 208.917969 C 159.40625 208.070312 158.753906 207.191406 158.144531 206.277344 C 157.535156 205.363281 156.972656 204.421875 156.453125 203.453125 C 155.9375 202.484375 155.46875 201.496094 155.050781 200.480469 C 154.628906 199.464844 154.261719 198.433594 153.941406 197.382812 C 153.625 196.332031 153.359375 195.269531 153.144531 194.191406 C 152.929688 193.113281 152.769531 192.03125 152.664062 190.9375 C 152.554688 189.84375 152.5 188.75 152.5 187.652344 C 152.5 186.554688 152.554688 185.457031 152.664062 184.363281 C 152.769531 183.273438 152.929688 182.1875 153.144531 181.109375 C 153.359375 180.035156 153.625 178.96875 153.941406 177.917969 C 154.261719 176.867188 154.628906 175.835938 155.050781 174.820312 C 155.46875 173.808594 155.9375 172.816406 156.453125 171.847656 C 156.972656 170.878906 157.535156 169.9375 158.144531 169.023438 C 158.753906 168.113281 159.40625 167.230469 160.101562 166.382812 C 160.796875 165.535156 161.53125 164.722656 162.304688 163.945312 C 163.082031 163.167969 163.894531 162.433594 164.742188 161.734375 C 165.585938 161.039062 166.46875 160.386719 167.378906 159.777344 C 168.289062 159.164062 169.230469 158.601562 170.195312 158.085938 C 171.164062 157.566406 172.152344 157.097656 173.167969 156.675781 C 174.179688 156.257812 175.210938 155.886719 176.257812 155.570312 C 177.308594 155.25 178.371094 154.984375 179.445312 154.769531 C 180.523438 154.554688 181.605469 154.394531 182.695312 154.285156 C 183.785156 154.179688 184.878906 154.125 185.976562 154.125 C 187.074219 154.125 188.167969 154.179688 189.257812 154.285156 C 190.347656 154.394531 191.433594 154.554688 192.507812 154.769531 C 193.582031 154.984375 194.644531 155.25 195.695312 155.570312 C 196.742188 155.886719 197.773438 156.257812 198.789062 156.675781 C 199.800781 157.097656 200.789062 157.566406 201.757812 158.085938 C 202.722656 158.601562 203.664062 159.164062 204.574219 159.777344 C 205.488281 160.386719 206.367188 161.039062 207.214844 161.734375 C 208.0625 162.433594 208.871094 163.167969 209.648438 163.945312 C 210.421875 164.722656 211.160156 165.535156 211.855469 166.382812 C 212.550781 167.230469 213.203125 168.113281 213.8125 169.023438 C 214.421875 169.9375 214.984375 170.878906 215.5 171.847656 C 216.015625 172.816406 216.484375 173.808594 216.90625 174.820312 C 217.324219 175.835938 217.691406 176.867188 218.011719 177.917969 C 218.328125 178.96875 218.597656 180.035156 218.808594 181.109375 C 219.023438 182.1875 219.183594 183.273438 219.292969 184.363281 C 219.398438 185.457031 219.453125 186.554688 219.453125 187.652344 Z M 219.453125 187.652344 " fill-opacity="1" fill-rule="nonzero"/><path fill="rgb(100%, 74.899292%, 0%)" d="M 61.292969 135.863281 C 61.292969 136.566406 61.257812 137.269531 61.191406 137.96875 C 61.121094 138.667969 61.019531 139.363281 60.882812 140.054688 C 60.742188 140.742188 60.574219 141.425781 60.371094 142.097656 C 60.164062 142.769531 59.929688 143.433594 59.660156 144.082031 C 59.390625 144.734375 59.09375 145.367188 58.761719 145.988281 C 58.429688 146.609375 58.070312 147.210938 57.679688 147.796875 C 57.289062 148.382812 56.871094 148.945312 56.425781 149.488281 C 55.980469 150.035156 55.507812 150.554688 55.011719 151.050781 C 54.515625 151.550781 53.996094 152.019531 53.453125 152.46875 C 52.910156 152.914062 52.34375 153.332031 51.761719 153.722656 C 51.175781 154.113281 50.574219 154.476562 49.957031 154.808594 C 49.335938 155.136719 48.703125 155.4375 48.050781 155.707031 C 47.402344 155.976562 46.742188 156.214844 46.070312 156.417969 C 45.398438 156.621094 44.71875 156.792969 44.027344 156.929688 C 43.339844 157.066406 42.644531 157.171875 41.945312 157.238281 C 41.246094 157.308594 40.546875 157.34375 39.84375 157.34375 C 39.140625 157.34375 38.441406 157.308594 37.742188 157.238281 C 37.042969 157.171875 36.347656 157.066406 35.660156 156.929688 C 34.972656 156.792969 34.289062 156.621094 33.617188 156.417969 C 32.945312 156.214844 32.285156 155.976562 31.636719 155.707031 C 30.988281 155.4375 30.351562 155.136719 29.734375 154.808594 C 29.113281 154.476562 28.511719 154.113281 27.929688 153.722656 C 27.34375 153.332031 26.78125 152.914062 26.238281 152.46875 C 25.695312 152.019531 25.175781 151.550781 24.679688 151.050781 C 24.179688 150.554688 23.710938 150.035156 23.265625 149.488281 C 22.820312 148.945312 22.402344 148.382812 22.011719 147.796875 C 21.621094 147.210938 21.257812 146.609375 20.929688 145.988281 C 20.597656 145.367188 20.296875 144.734375 20.027344 144.082031 C 19.757812 143.433594 19.523438 142.769531 19.320312 142.097656 C 19.117188 141.425781 18.945312 140.742188 18.808594 140.054688 C 18.671875 139.363281 18.566406 138.667969 18.5 137.96875 C 18.429688 137.269531 18.394531 136.566406 18.394531 135.863281 C 18.394531 135.160156 18.429688 134.457031 18.5 133.757812 C 18.566406 133.058594 18.671875 132.363281 18.808594 131.671875 C 18.945312 130.980469 19.117188 130.300781 19.320312 129.628906 C 19.523438 128.953125 19.757812 128.292969 20.027344 127.640625 C 20.296875 126.992188 20.597656 126.355469 20.929688 125.738281 C 21.257812 125.117188 21.621094 124.511719 22.011719 123.929688 C 22.402344 123.34375 22.820312 122.78125 23.265625 122.234375 C 23.710938 121.691406 24.179688 121.171875 24.679688 120.671875 C 25.175781 120.175781 25.695312 119.703125 26.238281 119.257812 C 26.78125 118.8125 27.34375 118.394531 27.929688 118.003906 C 28.511719 117.613281 29.113281 117.25 29.734375 116.917969 C 30.351562 116.585938 30.988281 116.285156 31.636719 116.015625 C 32.285156 115.746094 32.945312 115.511719 33.617188 115.308594 C 34.289062 115.101562 34.972656 114.933594 35.660156 114.792969 C 36.347656 114.65625 37.042969 114.554688 37.742188 114.484375 C 38.441406 114.417969 39.140625 114.382812 39.84375 114.382812 C 40.546875 114.382812 41.246094 114.417969 41.945312 114.484375 C 42.644531 114.554688 43.339844 114.65625 44.027344 114.792969 C 44.71875 114.933594 45.398438 115.101562 46.070312 115.308594 C 46.742188 115.511719 47.402344 115.746094 48.050781 116.015625 C 48.703125 116.285156 49.335938 116.585938 49.957031 116.917969 C 50.574219 117.25 51.175781 117.613281 51.761719 118.003906 C 52.34375 118.394531 52.910156 118.8125 53.453125 119.257812 C 53.996094 119.703125 54.515625 120.175781 55.011719 120.671875 C 55.507812 121.171875 55.980469 121.691406 56.425781 122.234375 C 56.871094 122.78125 57.289062 123.34375 57.679688 123.929688 C 58.070312 124.511719 58.429688 125.117188 58.761719 125.738281 C 59.09375 126.355469 59.390625 126.992188 59.660156 127.640625 C 59.929688 128.292969 60.164062 128.953125 60.371094 129.628906 C 60.574219 130.300781 60.742188 130.980469 60.882812 131.671875 C 61.019531 132.363281 61.121094 133.058594 61.191406 133.757812 C 61.257812 134.457031 61.292969 135.160156 61.292969 135.863281 Z M 61.292969 135.863281 " fill-opacity="1" fill-rule="nonzero"/><g clip-path="url(#id2)"><path fill="rgb(100%, 74.899292%, 0%)" d="M 356.394531 249.179688 C 356.394531 249.882812 356.359375 250.585938 356.292969 251.285156 C 356.222656 251.984375 356.121094 252.679688 355.984375 253.371094 C 355.847656 254.058594 355.675781 254.742188 355.472656 255.414062 C 355.269531 256.089844 355.03125 256.75 354.761719 257.398438 C 354.492188 258.050781 354.195312 258.683594 353.863281 259.304688 C 353.53125 259.925781 353.171875 260.527344 352.78125 261.113281 C 352.390625 261.699219 351.972656 262.261719 351.527344 262.804688 C 351.082031 263.351562 350.609375 263.871094 350.113281 264.367188 C 349.617188 264.867188 349.097656 265.335938 348.554688 265.785156 C 348.011719 266.230469 347.445312 266.648438 346.863281 267.039062 C 346.277344 267.429688 345.675781 267.792969 345.058594 268.125 C 344.4375 268.453125 343.804688 268.753906 343.15625 269.023438 C 342.503906 269.292969 341.84375 269.53125 341.171875 269.734375 C 340.5 269.9375 339.820312 270.109375 339.128906 270.246094 C 338.441406 270.382812 337.746094 270.488281 337.046875 270.554688 C 336.351562 270.625 335.648438 270.660156 334.945312 270.660156 C 334.242188 270.660156 333.542969 270.625 332.84375 270.554688 C 332.144531 270.488281 331.449219 270.382812 330.761719 270.246094 C 330.074219 270.109375 329.390625 269.9375 328.71875 269.734375 C 328.046875 269.53125 327.386719 269.292969 326.738281 269.023438 C 326.089844 268.753906 325.453125 268.453125 324.835938 268.125 C 324.214844 267.792969 323.613281 267.429688 323.03125 267.039062 C 322.445312 266.648438 321.882812 266.230469 321.339844 265.785156 C 320.796875 265.335938 320.277344 264.867188 319.78125 264.367188 C 319.28125 263.871094 318.8125 263.351562 318.367188 262.804688 C 317.921875 262.261719 317.503906 261.699219 317.113281 261.113281 C 316.722656 260.527344 316.359375 259.925781 316.03125 259.304688 C 315.699219 258.683594 315.398438 258.050781 315.128906 257.398438 C 314.863281 256.75 314.625 256.089844 314.421875 255.414062 C 314.21875 254.742188 314.046875 254.058594 313.910156 253.371094 C 313.773438 252.679688 313.667969 251.984375 313.601562 251.285156 C 313.53125 250.585938 313.496094 249.882812 313.496094 249.179688 C 313.496094 248.476562 313.53125 247.773438 313.601562 247.074219 C 313.667969 246.375 313.773438 245.679688 313.910156 244.988281 C 314.046875 244.296875 314.21875 243.617188 314.421875 242.945312 C 314.625 242.269531 314.863281 241.609375 315.128906 240.957031 C 315.398438 240.308594 315.699219 239.671875 316.03125 239.054688 C 316.359375 238.433594 316.722656 237.832031 317.113281 237.246094 C 317.503906 236.660156 317.921875 236.097656 318.367188 235.550781 C 318.8125 235.007812 319.28125 234.488281 319.78125 233.988281 C 320.277344 233.492188 320.796875 233.019531 321.339844 232.574219 C 321.882812 232.128906 322.445312 231.710938 323.03125 231.320312 C 323.613281 230.929688 324.214844 230.566406 324.835938 230.234375 C 325.453125 229.902344 326.089844 229.601562 326.738281 229.332031 C 327.386719 229.066406 328.046875 228.828125 328.71875 228.625 C 329.390625 228.417969 330.074219 228.25 330.761719 228.113281 C 331.449219 227.972656 332.144531 227.871094 332.84375 227.800781 C 333.542969 227.734375 334.242188 227.699219 334.945312 227.699219 C 335.648438 227.699219 336.351562 227.734375 337.046875 227.800781 C 337.746094 227.871094 338.441406 227.972656 339.128906 228.113281 C 339.820312 228.25 340.5 228.417969 341.171875 228.625 C 341.84375 228.828125 342.503906 229.066406 343.15625 229.332031 C 343.804688 229.601562 344.4375 229.902344 345.058594 230.234375 C 345.675781 230.566406 346.277344 230.929688 346.863281 231.320312 C 347.445312 231.710938 348.011719 232.128906 348.554688 232.574219 C 349.097656 233.019531 349.617188 233.492188 350.113281 233.988281 C 350.609375 234.488281 351.082031 235.007812 351.527344 235.550781 C 351.972656 236.097656 352.390625 236.660156 352.78125 237.246094 C 353.171875 237.832031 353.53125 238.433594 353.863281 239.054688 C 354.195312 239.671875 354.492188 240.308594 354.761719 240.957031 C 355.03125 241.609375 355.269531 242.269531 355.472656 242.945312 C 355.675781 243.617188 355.847656 244.296875 355.984375 244.988281 C 356.121094 245.679688 356.222656 246.375 356.292969 247.074219 C 356.359375 247.773438 356.394531 248.476562 356.394531 249.179688 Z M 356.394531 249.179688 " fill-opacity="1" fill-rule="nonzero"/></g></svg>